<svg id="Layer_1" data-name="Layer 1" xmlns="http://www.w3.org/2000/svg" viewBox="0 0 1191 200"><defs><style>.cls-1{fill:#353b75;}.cls-2{fill:#b6b9cd;}.cls-3{fill:#a1a3be;}.cls-4{fill:#8c90b0;}.cls-5{fill:#878bac;}.cls-6{fill:#fefefe;}.cls-7{fill:#fdfdfd;}.cls-8{fill:#fdfdfe;}</style></defs><path class="cls-1" d="M0,.09C19.52.09,39,.18,58.51,0c3.29,0,5,1,6.59,3.83Q89.82,47.15,114.82,90.3a10.87,10.87,0,0,0,3.26,3.9V89.5c0-28.3.08-56.6-.1-84.89C118,.77,119.05,0,122.7,0c16.16.21,32.33.26,48.49,0C175.4-.1,176,1.39,176,5.05c-.11,44.78,0,89.55-.19,134.33,0,4.67,1.31,5.63,5.75,5.61,39.16-.17,78.32-.34,117.47.09,8.58.09,14.2-6.89,11.5-15.8-1.29-4.29-3.89-6.51-8.75-6.47-21,.16-42-.36-63,.19-18.83.5-31.78-8.41-40.84-23.75S186.8,67,188.46,49.61a77.32,77.32,0,0,1,7.32-27.29C203,7.69,214.41,0,231.1,0q104,.2,208-.06c4.52,0,5.43,1.22,5.38,5.49-.22,21.14,0,42.28-.19,63.42,0,3.77,1,4.78,4.77,4.74,16.32-.2,32.66-.23,49,0,4.1.06,4.91-1.31,4.88-5.09-.17-21.31,0-42.62-.18-63.92,0-3.79,1-4.68,4.69-4.63q24.5.32,49,0c3.59,0,4.37,1.07,4.36,4.49q-.15,95.37,0,190.76c0,3.44-.87,4.56-4.44,4.52q-24.74-.28-49.48,0c-3.46,0-4.1-1.17-4.08-4.29.12-21.64,0-43.28.15-64.92,0-3.89-.95-5.06-4.95-5q-24.48.34-49,0c-3.81,0-4.73,1.07-4.7,4.77.17,21.47,0,42.94.16,64.42,0,3.83-.89,5.09-4.93,5q-24.24-.36-48.49,0c-4,.06-5-1.08-4.95-5,.14-46.44,0-92.88.18-139.32,0-4.19-.72-5.57-5.33-5.54-40,.22-80,.12-120,.13-8.17,0-12.67,4.12-12.55,11.45.11,6.4,5,10.58,12.51,10.59,22.83,0,45.66.21,68.49-.07,12.8-.16,22.43,5.2,29.91,15.09,20.39,27,17.33,73.29-6.42,97.4-9.93,10.07-21.77,15.27-36.16,15.24q-97.23-.24-194.46,0c-3.82,0-5.88-1.11-7.84-4.41C97.07,166.23,79.52,137.2,62,108.14c-.92-1.54-1.9-3-3-4.71-1.5,1.47-.8,3-.81,4.37-.05,28.63,0,92.06,0,92.06s-2.22,0-6.28-.05c-17.32-.24-34.65,0-52,.05Z"/><path class="cls-1" d="M1125,153c-.83,13.45-1.72,26.89-2.45,40.34-.19,3.49-1,5.59-5.2,5-3.59-.46-8.35,1.06-10.62-.76-2.63-2.11-.16-6.83.14-10.38,1.9-22,4-44,6-66.06.23-2.71,1.36-3.27,3.76-3.2,4.66.13,9.33.22,14,0,2.95-.17,3.95.94,4.65,3.7,3.92,15.56,8.07,31.06,12.27,47.08l9.23-33.94c.08-.32.09-.67.2-1,1.82-5.11,1.07-12.71,5.14-15,4.47-2.5,11.33-.59,17.13-.87,3-.15,3.47,1.19,3.69,3.78q3.12,36.52,6.54,73c.24,2.58-.17,3.7-3,3.57-15.16-.65-12.46,3.45-13.65-12.37-1-13.08-1.9-26.17-3.46-39.3-4.49,15.52-9.11,31-13.39,46.58-1,3.8-2.44,5.37-6.69,5.19-9.15-.37-9.18-.09-11.56-9q-5.52-20.7-11-41.4c-1.13-1.09-1.26,0-1.38.71C1125.19,150.13,1125.67,151.62,1125,153Z"/><path class="cls-1" d="M653.49,40.56c11.89,5,16,12,14.45,24-1.33,10-8.85,17.3-20.19,18-11.11.72-22.3.26-33.46.43-2.32,0-2.73-1-2.73-3q.06-37.19,0-74.38c0-2.27.66-3.31,3.12-3.26,9.82.22,19.67-.09,29.46.53,11,.7,18.56,6.7,20.54,15.14C666.77,26.94,663.29,34.09,653.49,40.56Z"/><path class="cls-1" d="M811.1,162.79c-.27-13.46-.43-26.93-.88-40.38-.11-3.44.79-4.51,4.36-4.48,11.27.11,11.27-.05,11.27,11,0,21.61-.1,43.23.1,64.83,0,3.8-1.18,4.28-4.71,4.78-9.58,1.38-14.43-2.24-17.72-11.39-5-14-11.67-27.46-17.63-41.14-.36-.34-.58-1-.9-1.11-.72-.19-.25.53-.31.79a6.86,6.86,0,0,0,.09,4.34c.24,15,.43,29.93.79,44.89.06,2.65-.8,3.37-3.37,3.5-12.33.62-12.33.69-12.33-11.4,0-21.45.1-42.91-.09-64.36,0-3.69,1-4.24,4.61-4.8,10.36-1.62,15.79,2.32,19.43,12.11,4.67,12.55,11.87,24.11,16.21,36.88.7,1,1.72,2,1.25,2.87C810.79,167.73,812,165.29,811.1,162.79Z"/><path class="cls-1" d="M983.73,43.21c.1,12,.09,24,.36,35.94.07,3.09-.81,3.88-3.89,3.89-11.66,0-11.66.18-11.66-11.6,0-21.47.07-42.94-.08-64.41,0-3.48,1.09-4.06,4.43-4.57,10.26-1.59,15.84,2.08,19.54,12,4.83,13,12.43,25,16.63,38.34a2.32,2.32,0,0,1,.91,1.48,3.23,3.23,0,0,0,.08-2.33c-.84-15.12-1-30.26-1.17-45.4,0-3,.63-4,3.81-4,11.67-.16,11.67-.29,11.67,11.21,0,21.47-.1,42.93.1,64.4,0,4-1.27,4.48-5,5-9.17,1.3-13.83-2-17-10.82-5.07-14-11.73-27.46-17.72-41.15-.12-.1-.29-.19-.36-.32-.21-.41-.65-.52-.68-.23A51.33,51.33,0,0,0,983.73,43.21Z"/><path class="cls-1" d="M972.37,164.16c8.28,10.6,14.5,22.09,21.62,34.13-6.42,0-12,0-17.58,0-2.12,0-2.62-1.82-3.42-3.2-4.49-7.75-8.85-15.59-13.42-23.29-1.67-2.8-3.4-5.75-7.47-6.73-.89,5.82-.2,11.54-.4,17.21-.06,1.5,0,3,0,4.49,0,12.9,0,12.83-13.25,11.61-2.28-.21-2.72-1.1-2.71-3.08,0-24.76.07-49.53,0-74.3,0-3,1.36-3.1,3.63-3.08,8.81.1,17.63,0,26.45.13,12.47.19,21.44,7.41,23.09,18.52C990.59,148.16,986.42,160.67,972.37,164.16Z"/><path class="cls-1" d="M802.64,42.76c0-11.82.08-23.63-.06-35.45,0-3,.42-4.47,4-4.31,7.48.34,15,0,22.48.29,15.7.57,26.39,8.9,30.31,24.09,3,11.65,3.11,23.42-1.39,34.82-5.14,13-14.61,20.32-28.9,20.62-7.66.16-15.33,0-23,.21-3.07.09-3.51-1.19-3.49-3.81C802.7,67.07,802.64,54.91,802.64,42.76Z"/><path class="cls-1" d="M941.84,34.51c0,8.15,0,16.3,0,24.44-.08,14-6.15,21.76-19.8,24.54A42.72,42.72,0,0,1,898.42,82c-9.18-3.39-14.33-10.27-14.42-20-.17-18.62,0-37.25-.14-55.87,0-2.93,1-3.51,3.72-3.57,13-.27,13-.35,13,12.83,0,14-.06,27.94,0,41.91.06,10.46,6.68,15.34,16.87,12.6,4.88-1.31,7.54-4.8,7.6-10.9.15-16.79.3-33.59,0-50.38-.07-4.72,1-6.3,6-6.12,10.74.39,10.75.11,10.75,11.06V34.51Z"/><path class="cls-1" d="M1110.52,58.15c0,5-.15,10,.07,15,.12,2.76-.94,4.22-3.35,5.35-10.73,5-21.88,6.86-33.51,4.34-13.71-3-23.85-15.34-25.6-31.53-1-9.12-.69-18.27,2.71-27,10-25.68,39-28.21,56.41-15.6,1.91,1.38,2.5,2.47.57,4.15a6.68,6.68,0,0,0-.67.74c-5.28,6.41-5.28,6.41-12.57,3.13-14-6.31-25.52-.1-27.76,15-1.38,9.28-1.69,18.57,1,27.68a17.51,17.51,0,0,0,23.47,11.33c1.8-.69,2.69-1.69,2.51-3.68-.14-1.49,0-3,0-4.49,0-3.32,1-7.29-.47-9.79-1.73-2.94-6.07-.91-9.25-1.2-2-.19-2.77-.9-3.17-2.91-2.1-10.45-2.17-10.43,8.38-10.43,5.66,0,11.34.22,17-.08,3.65-.19,4.55,1.17,4.39,4.56C1110.34,47.83,1110.52,53,1110.52,58.15Z"/><path class="cls-1" d="M1018.79,150.22c0-9.49.08-19,0-28.47,0-2.64.45-3.74,3.49-3.81,13-.3,13-.42,13,12.76,0,14.32-.15,28.64.17,43,.21,9.25,5.66,13.41,14.83,12.14,6.19-.86,9.64-4.59,9.69-11.23.14-17.14.22-34.29,0-51.44-.06-4.16,1.08-5.29,5.22-5.2,11.55.26,11.55.06,11.55,11.76q0,21.72,0,43.44c0,15.9-6.82,24-22.56,26.36a42.69,42.69,0,0,1-20.24-1.69c-9.66-3.28-14.79-10.35-15.08-20.6,0-.67,0-1.34,0-2v-25Z"/><path class="cls-1" d="M1163.36.15a50,50,0,0,1,22.34,6.23c2.09,1.17,3.19,2.37,1.18,4.52a4.74,4.74,0,0,0-.56.82c-4.85,7.55-4.86,7.6-13.14,4.25A27,27,0,0,0,1160,14c-4.91.52-8.53,3.71-9,7.94-.51,5,2.72,7.14,6.87,8.37,3.66,1.09,7.35,2.07,11,3.13,14.91,4.3,21.7,12.8,21,26.23-.67,12.22-10.16,21.8-24,24.19-11.51,2-22.47.07-33.08-4.67-2.68-1.19-3.39-2.25-2-5.17,4.17-8.79,4-8.88,12.83-5.51A37.61,37.61,0,0,0,1160.72,71c6.31-.6,10-3.82,10.69-9.26.67-5.2-1.87-8.9-8-11-4.71-1.6-9.61-2.66-14.33-4.25-10.32-3.47-15.68-10.18-16.16-19.85-.52-10.57,4.72-19.19,14.36-23.52A36.77,36.77,0,0,1,1163.36.15Z"/><path class="cls-1" d="M645.53,131.08c-9.62.85-18.95.29-28.27.53-2.91.08-3.79-.65-3-3.7,2.4-9.86,2.3-9.89,12.36-9.89,11.32,0,22.66.19,34-.1,3.92-.1,4.57,1.18,4.64,4.76a23.86,23.86,0,0,1-3.76,13.55c-9.87,16.13-19.42,32.46-29.18,48.87,9.94,0,19.82.11,29.7-.07,3.35-.05,4.3.48,3.12,4.08-3,9.15-2.8,9.21-12.26,9.21-12,0-24-.12-36,.07-3.65.06-5.22-.58-5.16-4.78A23.12,23.12,0,0,1,615.27,181c10-15.91,19.7-32,29.49-48A13.25,13.25,0,0,0,645.53,131.08Z"/><path class="cls-1" d="M693.91,157.86c0-12,.09-24-.06-35.94,0-3,.6-4,3.81-4,12.83.2,25.66.15,38.49,0,2.83,0,3.57.49,3.09,3.56-1.5,9.67-1.33,9.7-11.22,9.7-4.83,0-9.67.1-14.5,0-2.49-.08-3.65.58-3.52,3.33.2,4,.19,8,0,12-.12,2.64.78,3.49,3.41,3.41,5.32-.17,10.66.06,16-.1,2.65-.09,3.74.5,3.78,3.48.15,9.69.29,9.69-9.53,9.69-3.33,0-6.67.15-10-.05-2.69-.15-3.46.94-3.39,3.47.14,4.82.17,9.66,0,14.48-.11,2.87,1,3.74,3.76,3.69,7.66-.15,15.33.08,23-.12,3.06-.07,3.93.88,3.94,3.94,0,9.94.19,9.94-9.87,9.94-10.83,0-21.66-.15-32.49.08-3.6.08-4.87-.69-4.77-4.59C694.09,181.83,693.91,169.85,693.91,157.86Z"/><path class="cls-1" d="M888.38,165.12c0,9.81-.07,19.62,0,29.42,0,2.66-.61,3.75-3.57,3.86-12.9.47-12.9.58-12.9-12.35,0-16.78-.08-33.57.07-50.36,0-3.19-.76-4.56-4.11-4.16a56,56,0,0,1-6.48,0c-9.36,0-11.19-2.38-9.26-11.59.39-1.85,1.39-2,2.8-2q26.21,0,52.42,0c.8,0,2.28.22,2.3.45.37,3.87-1.14,7.48-1.73,11.23-.4,2.56-2.44,1.62-3.93,1.84-.33.05-.67,0-1,0-4.74.38-10.87-2.09-13.85,1.08-2.73,2.89-.69,8.89-.77,13.52C888.29,152.49,888.38,158.81,888.38,165.12Z"/><path class="cls-1" d="M736.57,42.74c0-12,.09-24-.07-35.92,0-3.18.82-4.25,4.15-4.28,12.4-.1,12.4-.22,12.4,11.87,0,16.79.12,33.59-.1,50.38-.05,3.84,1.1,4.82,4.77,4.67,7-.29,14,0,21-.11,2.24,0,3.16.22,2.64,3C779.4,82.93,779.55,83,768.92,83c-9.32,0-18.65-.15-28,.08-3.45.08-4.53-.84-4.47-4.38C736.7,66.69,736.57,54.71,736.57,42.74Z"/><path class="cls-1" d="M691.94,42.51c0-11.63.13-23.27-.07-34.91-.07-3.65.56-5.17,4.76-5.09,12.3.23,12.31,0,12.31,12.44,0,21.28-.06,42.56.06,63.84,0,3.07-.5,4.56-4,4.24-4.11-.38-9.61,1.33-12-.75-2.87-2.43-.89-8.08-1-12.33C691.84,60.81,691.94,51.66,691.94,42.51Z"/><path class="cls-2" d="M983.73,43.21c-1.25-5-.53-10-1-15.53a5,5,0,0,1,2,3.51C982.78,35.06,984.9,39.27,983.73,43.21Z"/><path class="cls-3" d="M811.1,162.79c1.28,2.48.78,5.13,0,8.05l-1.12-4C811.59,165.8,810.38,164,811.1,162.79Z"/><path class="cls-4" d="M784.77,150c-1.24-2.25-.78-4.64-.72-7.16a3,3,0,0,1,1.84,3.14C784.21,146.94,785.51,148.75,784.77,150Z"/><path class="cls-5" d="M1010.05,52a3.06,3.06,0,0,1,.55,3.4,2.63,2.63,0,0,1-1.54-2.55Z"/><path class="cls-6" d="M627.84,58.74c0-10.91,0-10.91,10.79-10.7q10.74.21,11.27,9.81c.38,6.8-3.52,11.19-10.51,11.86C627.84,70.82,627.84,70.82,627.84,58.74Z"/><path class="cls-7" d="M635.59,34.76c-2.15,0-3.65-.08-5.14,0-2.2.15-3-.88-2.89-3,.1-2.65-.29-5.37.11-8s-2-6.08,1.57-7.49c5.41-2.15,15.36.4,17.5,4.12,2.34,4.06,1.79,8.1-1.08,11.63S638.69,34.54,635.59,34.76Z"/><path class="cls-8" d="M951.75,141.8c0-.83-.28-1.79,0-2.46,1.3-2.67-3.14-7.62,2.81-8.25,10.86-1.15,16.55,1.91,17.39,8.72s-1.79,11-7.75,12.32C952.49,154.64,951.74,154,951.75,141.8Z"/><path class="cls-6" d="M819,42.5c0-7.66.11-15.32-.06-23-.06-2.79.76-3.63,3.61-3.69C835.17,15.55,840,19.28,842.16,32a65.58,65.58,0,0,1-.11,24.31c-2.21,10.85-10.4,15.92-21.16,13.52C818.25,69.23,819,67.43,819,66,819,58.14,819,50.32,819,42.5Z"/></svg>